<?xml version="1.0" encoding="UTF-8" standalone="no"?>
<svg xmlns="http://www.w3.org/2000/svg" width="512" height="512" viewBox="0 0 512 512" fill="none">
  <!-- 背景圆 -->
  <circle cx="256" cy="256" r="250" fill="#0D1B2A"/>
  
  <!-- P字母的主体 -->
  <path d="M230 120C274.183 120 310 155.817 310 200C310 244.183 274.183 280 230 280H190V380H150V120H230Z" 
        fill="#00F5D4" stroke="#00F5D4" stroke-width="2"/>
  
  <!-- P字母的内部挖空 -->
  <path d="M190 160V240H230C252.091 240 270 222.091 270 200C270 177.909 252.091 160 230 160H190Z" 
        fill="#0D1B2A" stroke="#0D1B2A" stroke-width="2"/>
  
  <!-- 外部轨道 -->
  <path d="M256 40C367.046 40 457 129.954 457 241C457 352.046 367.046 442 256 442C144.954 442 55 352.046 55 241C55 129.954 144.954 40 256 40Z" 
        stroke="#7B2CBF" stroke-width="8" stroke-dasharray="10 6" fill="none"/>
  
  <!-- 内部轨道和箭头 -->
  <path d="M256 100C334.366 100 398 163.634 398 242C398 280 380 314 350 336C320 358 290 358 230 358" 
        stroke="#00F5D4" stroke-width="8" fill="none"/>
  
  <!-- 轨道箭头指向P的开口 -->
  <path d="M230 358C200 358 190 320 190 280" 
        stroke="#00F5D4" stroke-width="8" fill="none" 
        marker-end="url(#arrowhead)"/>
  
  <!-- 箭头定义 -->
  <defs>
    <marker id="arrowhead" markerWidth="10" markerHeight="7" refX="0" refY="3.5" orient="auto">
      <polygon points="0 0, 10 3.5, 0 7" fill="#00F5D4"/>
    </marker>
  </defs>
</svg> 