<?xml version="1.0" encoding="UTF-8" standalone="no"?>
<svg xmlns="http://www.w3.org/2000/svg" width="512" height="512" viewBox="0 0 512 512" fill="none">
  <!-- 背景圆 - 与主图标完全一致 -->
  <circle cx="256" cy="256" r="250" fill="#0D1B2A"/>
  
  <!-- P字母的主体 - 与主图标结构一致，但稍微加粗 -->
  <path d="M230 120C274.183 120 310 155.817 310 200C310 244.183 274.183 280 230 280H190V380H150V120H230Z" 
        fill="#00F5D4" stroke="#00F5D4" stroke-width="4"/>
  
  <!-- P字母的内部挖空 - 与主图标一致 -->
  <path d="M190 160V240H230C252.091 240 270 222.091 270 200C270 177.909 252.091 160 230 160H190Z" 
        fill="#0D1B2A" stroke="#0D1B2A" stroke-width="2"/>
  
  <!-- 外部轨道 - 使用实线而非虚线，以适应小尺寸显示 -->
  <path d="M256 40C367.046 40 457 129.954 457 241C457 352.046 367.046 442 256 442C144.954 442 55 352.046 55 241C55 129.954 144.954 40 256 40Z" 
        stroke="#7B2CBF" stroke-width="10" fill="none"/>
  
  <!-- 内部轨道和箭头 - 加粗线条以增强小尺寸可见性 -->
  <path d="M256 100C334.366 100 398 163.634 398 242C398 280 380 314 350 336C320 358 290 358 230 358" 
        stroke="#00F5D4" stroke-width="10" fill="none"/>
  
  <!-- 轨道箭头指向P的开口 - 加粗线条 -->
  <path d="M230 358C200 358 190 320 190 280" 
        stroke="#00F5D4" stroke-width="10" fill="none"/>
  
  <!-- 箭头尖端 - 手动绘制更大更明显的箭头 -->
  <path d="M190 280L175 260L205 270L190 280Z" 
        fill="#00F5D4" stroke="none"/>
</svg> 